<?xml version="1.0" encoding="utf-8"?>
<svg xmlns="http://www.w3.org/2000/svg" x="0" y="0" viewBox="0 0 128 128" width="512" height="512">
  <path fill="#fff" d="M114,124H14c-5.5,0-10-4.5-10-10V14C4,8.5,8.5,4,14,4h100c5.5,0,10,4.5,10,10v100 C124,119.5,119.5,124,114,124z" />
  <path fill="#444b54" d="M114,1H14C6.8,1,1,6.8,1,14v100c0,7.2,5.8,13,13,13h100c7.2,0,13-5.8,13-13V14C127,6.8,121.2,1,114,1z M14,7 h100c3.9,0,7,3.1,7,7v11H7V14C7,10.1,10.1,7,14,7z" />
  <circle cx="16" cy="16" r="3" fill="#444b54" />
  <circle cx="26" cy="16" r="3" fill="#444b54" />
  <circle cx="36" cy="16" r="3" fill="#444b54" />
  <path fill="#fff" d="M97,95.5c-1.7,0-3-1.3-3-3v-4H83c-1.7,0-3-1.3-3-3v-4c0-0.5,0.1-1,0.4-1.4l14-26c0.7-1.2,2-1.8,3.4-1.5 c1.3,0.3,2.3,1.5,2.3,2.9v27c1.7,0,3,1.3,3,3s-1.3,3-3,3v4C100,94.2,98.7,95.5,97,95.5z M86,82.5h8V67.4l-8,14.9V82.5z" />
  <path fill="#fff" d="M64,95.5c-6.1,0-11-4.9-11-11v-21c0-6.1,4.9-11,11-11s11,4.9,11,11v21C75,90.6,70.1,95.5,64,95.5z M64,58.5 c-2.8,0-5,2.2-5,5v21c0,2.8,2.2,5,5,5s5-2.2,5-5v-21C69,60.7,66.8,58.5,64,58.5z" />
  <path fill="#fff" d="M42,95.5c-1.7,0-3-1.3-3-3v-4H28c-1.7,0-3-1.3-3-3v-4c0-0.5,0.1-1,0.4-1.4l14-26c0.7-1.2,2-1.8,3.4-1.5 s2.3,1.5,2.3,2.9v27c1.7,0,3,1.3,3,3s-1.3,3-3,3v4C45,94.2,43.7,95.5,42,95.5z M31,82.5h8V67.4l-8,14.9V82.5z" />
</svg>